G04 DipTrace 3.0.0.2*
G04 BottomSilk.gbr*
%MOMM*%
G04 #@! TF.FileFunction,Legend,Bot*
G04 #@! TF.Part,Single*
%ADD22C,0.15686*%
%FSLAX35Y35*%
G04*
G71*
G90*
G75*
G01*
G04 BotSilk*
%LPD*%
X2857669Y713814D2*
D22*
Y636098D1*
X2862498Y621498D1*
X2867440Y616668D1*
X2877098Y611727D1*
X2886869D1*
X2896527Y616668D1*
X2901356Y621498D1*
X2906298Y636098D1*
Y645756D1*
X2826296Y679785D2*
Y611727D1*
Y660356D2*
X2811696Y674956D1*
X2801925Y679785D1*
X2787438D1*
X2777667Y674956D1*
X2772838Y660356D1*
Y611727D1*
X2683178Y679785D2*
Y611727D1*
Y665185D2*
X2692836Y674956D1*
X2702607Y679785D1*
X2717094D1*
X2726865Y674956D1*
X2736524Y665185D1*
X2741465Y650585D1*
Y640927D1*
X2736524Y626327D1*
X2726865Y616668D1*
X2717094Y611727D1*
X2702607D1*
X2692836Y616668D1*
X2683178Y626327D1*
X2651805Y679785D2*
X2622605Y611727D1*
X2593517Y679785D1*
X2503857D2*
Y611727D1*
Y665185D2*
X2513516Y674956D1*
X2523286Y679785D1*
X2537774D1*
X2547545Y674956D1*
X2557203Y665185D1*
X2562145Y650585D1*
Y640927D1*
X2557203Y626327D1*
X2547545Y616668D1*
X2537774Y611727D1*
X2523286D1*
X2513516Y616668D1*
X2503857Y626327D1*
X2472484Y679785D2*
Y611727D1*
Y650585D2*
X2467543Y665185D1*
X2457884Y674956D1*
X2448114Y679785D1*
X2433514D1*
X2402141D2*
Y611727D1*
Y650585D2*
X2397200Y665185D1*
X2387541Y674956D1*
X2377770Y679785D1*
X2363170D1*
X2307539D2*
X2317198Y674956D1*
X2326969Y665185D1*
X2331798Y650585D1*
Y640927D1*
X2326969Y626327D1*
X2317198Y616668D1*
X2307539Y611727D1*
X2292939D1*
X2283169Y616668D1*
X2273510Y626327D1*
X2268569Y640927D1*
Y650585D1*
X2273510Y665185D1*
X2283169Y674956D1*
X2292939Y679785D1*
X2307539D1*
M02*
