G04 DipTrace 3.0.0.2*
G04 Bottom.gbr*
%MOMM*%
G04 #@! TF.FileFunction,Copper,L2,Bot*
G04 #@! TF.Part,Single*
G04 #@! TA.AperFunction,Conductor*
%ADD10C,0.254*%
%ADD13C,0.3048*%
G04 #@! TA.AperFunction,ComponentPad*
%ADD14R,1.5X1.5*%
%ADD15C,1.5*%
%FSLAX35Y35*%
G04*
G71*
G90*
G75*
G01*
G04 Bottom*
%LPD*%
X166333Y888000D2*
D13*
Y726640D1*
X275560Y617413D1*
Y325360D1*
X224760Y274560D1*
X165000D1*
Y164000D1*
X420333Y888000D2*
Y726640D1*
X529560Y617413D1*
Y310120D1*
X419000Y199560D1*
Y164000D1*
X674333Y888000D2*
Y734220D1*
X783560Y624993D1*
Y310120D1*
X673000Y199560D1*
Y164000D1*
X928333Y888000D2*
Y718990D1*
X1037560Y609763D1*
Y310120D1*
X927000Y199560D1*
Y164000D1*
X1182333Y888000D2*
Y672130D1*
X1291560Y562903D1*
Y310120D1*
X1181000Y199560D1*
Y164000D1*
X1436333Y888000D2*
Y713610D1*
X1545560Y604383D1*
Y310120D1*
X1435000Y199560D1*
Y164000D1*
X1690333Y888000D2*
Y720170D1*
X1799560Y610943D1*
Y310120D1*
X1689000Y199560D1*
Y164000D1*
X1944333Y888000D2*
Y731720D1*
X2053560Y622493D1*
Y310120D1*
X1943000Y199560D1*
Y164000D1*
X2198333Y888000D2*
Y741850D1*
X2307560Y632623D1*
Y310120D1*
X2197000Y199560D1*
Y164000D1*
X2452333Y888000D2*
Y769530D1*
X2561560Y660303D1*
Y310120D1*
X2451000Y199560D1*
Y164000D1*
X2706333Y888000D2*
Y726640D1*
X2815560Y617413D1*
Y310120D1*
X2705000Y199560D1*
Y164000D1*
X2960333Y888000D2*
Y777440D1*
X3069560Y668213D1*
Y310120D1*
X2959000Y199560D1*
Y164000D1*
X3214333Y888000D2*
Y726640D1*
X3323560Y617413D1*
Y310120D1*
X3213000Y199560D1*
Y164000D1*
X3468333Y888000D2*
Y777440D1*
X3577560Y668213D1*
Y310120D1*
X3467000Y199560D1*
Y164000D1*
X3722333Y888000D2*
Y726640D1*
X3831560Y617413D1*
Y310120D1*
X3721000Y199560D1*
Y164000D1*
X3976333Y888000D2*
Y777440D1*
X4085560Y668213D1*
Y310120D1*
X3975000Y199560D1*
Y164000D1*
X4230333Y888000D2*
Y726640D1*
X4339560Y617413D1*
Y310120D1*
X4229000Y199560D1*
Y164000D1*
X4484333Y888000D2*
Y777440D1*
X4593560Y668213D1*
Y310120D1*
X4483000Y199560D1*
Y164000D1*
X4738333Y888000D2*
Y726640D1*
X4847560Y617413D1*
Y310120D1*
X4737000Y199560D1*
Y164000D1*
X4992333Y888000D2*
Y777440D1*
X5101560Y668213D1*
Y310120D1*
X4991000Y199560D1*
Y164000D1*
X4992333Y1142000D2*
Y998560D1*
X4899700D1*
X4848900Y947760D1*
Y802170D1*
X4898360Y752710D1*
Y659260D1*
X4991000Y566620D1*
Y418000D1*
X4484333Y1142000D2*
Y998560D1*
X4391700D1*
X4340900Y947760D1*
Y802170D1*
X4390360Y752710D1*
Y659260D1*
X4483000Y566620D1*
Y418000D1*
X3976333Y1142000D2*
Y998560D1*
X3883700D1*
X3832900Y947760D1*
Y802170D1*
X3882360Y752710D1*
Y659260D1*
X3975000Y566620D1*
Y418000D1*
X3468333Y1142000D2*
Y998560D1*
X3375700D1*
X3324900Y947760D1*
Y802170D1*
X3374360Y752710D1*
Y659260D1*
X3467000Y566620D1*
Y418000D1*
X2960333Y1142000D2*
Y998560D1*
X2867700D1*
X2816900Y947760D1*
Y802170D1*
X2866360Y752710D1*
Y659260D1*
X2959000Y566620D1*
Y418000D1*
X166333Y1142000D2*
X55333Y1031000D1*
D10*
Y527667D1*
D13*
X165000Y418000D1*
X420333Y1142000D2*
Y998560D1*
X327700D1*
X276900Y947760D1*
Y802170D1*
X326360Y752710D1*
Y621200D1*
X419000Y528560D1*
Y418000D1*
X674333Y1142000D2*
Y998560D1*
X581700D1*
X530900Y947760D1*
Y802170D1*
X580360Y752710D1*
Y659260D1*
X673000Y566620D1*
Y418000D1*
X1182333Y1142000D2*
Y998560D1*
X1089700D1*
X1038900Y947760D1*
Y816110D1*
X1131533Y723477D1*
Y467467D1*
X1181000Y418000D1*
X1436333Y1142000D2*
Y998560D1*
X1343700D1*
X1292900Y947760D1*
Y747660D1*
X1342360Y698200D1*
Y621200D1*
X1435000Y528560D1*
Y418000D1*
X1690333Y1142000D2*
Y998560D1*
X1597700D1*
X1546900Y947760D1*
Y789140D1*
X1596360Y739680D1*
Y646230D1*
X1689000Y553590D1*
Y418000D1*
X1944333Y1142000D2*
Y998560D1*
X1851700D1*
X1800900Y947760D1*
Y795700D1*
X1850360Y746240D1*
Y652790D1*
X1943000Y560150D1*
Y418000D1*
D14*
X165000Y164000D3*
D15*
Y418000D3*
X419000Y164000D3*
Y418000D3*
X673000Y164000D3*
Y418000D3*
X927000Y164000D3*
Y418000D3*
X1181000Y164000D3*
Y418000D3*
X1435000Y164000D3*
Y418000D3*
X1689000Y164000D3*
Y418000D3*
X1943000Y164000D3*
Y418000D3*
X2197000Y164000D3*
Y418000D3*
X2451000Y164000D3*
Y418000D3*
X2705000Y164000D3*
Y418000D3*
X2959000Y164000D3*
Y418000D3*
X3213000Y164000D3*
Y418000D3*
X3467000Y164000D3*
Y418000D3*
X3721000Y164000D3*
Y418000D3*
X3975000Y164000D3*
Y418000D3*
X4229000Y164000D3*
Y418000D3*
X4483000Y164000D3*
Y418000D3*
X4737000Y164000D3*
Y418000D3*
X4991000Y164000D3*
Y418000D3*
D14*
X166333Y888000D3*
D15*
Y1142000D3*
X420333Y888000D3*
Y1142000D3*
X674333Y888000D3*
Y1142000D3*
X928333Y888000D3*
Y1142000D3*
X1182333Y888000D3*
Y1142000D3*
X1436333Y888000D3*
Y1142000D3*
X1690333Y888000D3*
Y1142000D3*
X1944333Y888000D3*
Y1142000D3*
X2198333Y888000D3*
Y1142000D3*
X2452333Y888000D3*
Y1142000D3*
X2706333Y888000D3*
Y1142000D3*
X2960333Y888000D3*
Y1142000D3*
X3214333Y888000D3*
Y1142000D3*
X3468333Y888000D3*
Y1142000D3*
X3722333Y888000D3*
Y1142000D3*
X3976333Y888000D3*
Y1142000D3*
X4230333Y888000D3*
Y1142000D3*
X4484333Y888000D3*
Y1142000D3*
X4738333Y888000D3*
Y1142000D3*
X4992333Y888000D3*
Y1142000D3*
M02*
