M48
METRIC,0000.00
T01C0.9
%
T01
X+000165Y+000164
X+000165Y+000418
X+000419Y+000164
X+000419Y+000418
X+000673Y+000164
X+000673Y+000418
X+000927Y+000164
X+000927Y+000418
X+001181Y+000164
X+001181Y+000418
X+001435Y+000164
X+001435Y+000418
X+001689Y+000164
X+001689Y+000418
X+001943Y+000164
X+001943Y+000418
X+002197Y+000164
X+002197Y+000418
X+002451Y+000164
X+002451Y+000418
X+002705Y+000164
X+002705Y+000418
X+002959Y+000164
X+002959Y+000418
X+003213Y+000164
X+003213Y+000418
X+003467Y+000164
X+003467Y+000418
X+003721Y+000164
X+003721Y+000418
X+003975Y+000164
X+003975Y+000418
X+004229Y+000164
X+004229Y+000418
X+004483Y+000164
X+004483Y+000418
X+004737Y+000164
X+004737Y+000418
X+004991Y+000164
X+004991Y+000418
X+000166Y+000888
X+000166Y+001142
X+000420Y+000888
X+000420Y+001142
X+000674Y+000888
X+000674Y+001142
X+000928Y+000888
X+000928Y+001142
X+001182Y+000888
X+001182Y+001142
X+001436Y+000888
X+001436Y+001142
X+001690Y+000888
X+001690Y+001142
X+001944Y+000888
X+001944Y+001142
X+002198Y+000888
X+002198Y+001142
X+002452Y+000888
X+002452Y+001142
X+002706Y+000888
X+002706Y+001142
X+002960Y+000888
X+002960Y+001142
X+003214Y+000888
X+003214Y+001142
X+003468Y+000888
X+003468Y+001142
X+003722Y+000888
X+003722Y+001142
X+003976Y+000888
X+003976Y+001142
X+004230Y+000888
X+004230Y+001142
X+004484Y+000888
X+004484Y+001142
X+004738Y+000888
X+004738Y+001142
X+004992Y+000888
X+004992Y+001142
T00
M30
